<svg xmlns="http://www.w3.org/2000/svg" viewBox="0 0 170.08 170.08"><defs><style>.cls-1{fill:none;}.cls-2{fill:#ed1c24;}.cls-3{fill:#231f20;}.cls-4{fill:#fff;}</style></defs><g id="Layer_2" data-name="Layer 2"><g id="Layer_1-2" data-name="Layer 1"><rect class="cls-1" width="170.08" height="170.08"/><circle class="cls-2" cx="85.04" cy="85.04" r="70.87"/><path class="cls-3" d="M97.82,45.08V75.77a2.47,2.47,0,0,1-2.47,2.49h-16a2.46,2.46,0,0,1-2.46-2.51h0a2.47,2.47,0,0,0-4.54-1.37L36.16,130.55a2.46,2.46,0,0,1-2.07,1.13H16.82a2.46,2.46,0,0,1-2.06-3.81L69.39,43.76a2.47,2.47,0,0,1,2.06-1.12H95A2.78,2.78,0,0,1,97.82,45.08Z"/><path class="cls-4" d="M140.76,58.25a26.26,26.26,0,0,0-11-8.86Q123.6,46.9,112,46.91h-3.37a2.47,2.47,0,0,0-2.47,2.46V60.43a2.47,2.47,0,0,0,2.47,2.46h2.28q7,0,10.47,3.16a11,11,0,0,1,3.45,8.51,12,12,0,0,1-3.09,8.13q-3.09,3.54-10.77,3.54H75.88a2.46,2.46,0,0,0-2.12,1.21L67.45,98a2.46,2.46,0,0,0,2.11,3.73h5.3a2.46,2.46,0,0,1,2.46,2.46v28.22a2.46,2.46,0,0,0,2.46,2.46h16a2.46,2.46,0,0,0,2.46-2.46V104.68a2.46,2.46,0,0,1,2.46-2.46h12q9.41,0,13.83-1.16a26.54,26.54,0,0,0,9.12-4.71A22.79,22.79,0,0,0,143,86.62a32.73,32.73,0,0,0,2.58-12.7Q145.59,64.64,140.76,58.25Z"/></g></g></svg>